{
	"asset":{
		"generator":"Khronos glTF Blender I/O v5.0.21",
		"version":"2.0"
	},
	"scene":0,
	"scenes":[
		{
			"name":"Scene",
			"nodes":[
				0
			]
		}
	],
	"nodes":[
		{
			"mesh":0,
			"name":"Cube"
		}
	],
	"meshes":[
		{
			"name":"Cube",
			"primitives":[
				{
					"attributes":{
						"POSITION":0,
						"NORMAL":1,
						"TEXCOORD_0":2
					},
					"indices":3
				}
			]
		}
	],
	"accessors":[
		{
			"bufferView":0,
			"componentType":5126,
			"count":518,
			"max":[
				0.0864143818616867,
				0.0864143818616867,
				0.0864143818616867
			],
			"min":[
				-0.0864143818616867,
				-0.0864143818616867,
				-0.0864143818616867
			],
			"type":"VEC3"
		},
		{
			"bufferView":1,
			"componentType":5126,
			"count":518,
			"type":"VEC3"
		},
		{
			"bufferView":2,
			"componentType":5126,
			"count":518,
			"type":"VEC2"
		},
		{
			"bufferView":3,
			"componentType":5123,
			"count":864,
			"type":"SCALAR"
		}
	],
	"bufferViews":[
		{
			"buffer":0,
			"byteLength":6216,
			"byteOffset":0,
			"target":34962
		},
		{
			"buffer":0,
			"byteLength":6216,
			"byteOffset":6216,
			"target":34962
		},
		{
			"buffer":0,
			"byteLength":4144,
			"byteOffset":12432,
			"target":34962
		},
		{
			"buffer":0,
			"byteLength":1728,
			"byteOffset":16576,
			"target":34963
		}
	],
	"buffers":[
		{
			"byteLength":18304,
			"uri":"rubiks4x4_outline.bin"
		}
	]
}
