<svg width="453" height="71" viewBox="0 0 453 71" fill="none" xmlns="http://www.w3.org/2000/svg">
<rect x="25" width="403" height="12" fill="#BBBBBB" fill-opacity="0.2"/>
<rect x="25" width="13" height="12" fill="black"/>
<rect x="154" width="14" height="12" fill="black"/>
<rect x="285" width="13" height="12" fill="black"/>
<rect x="415" width="13" height="12" fill="black"/>
<path d="M34.5898 45H28.0684V44.0908L31.3291 40.4678C31.6208 40.1442 31.8646 39.8571 32.0605 39.6064C32.2565 39.3558 32.4137 39.1234 32.5322 38.9092C32.6507 38.6995 32.735 38.5013 32.7852 38.3145C32.8353 38.123 32.8604 37.9271 32.8604 37.7266C32.8604 37.4805 32.8193 37.2503 32.7373 37.0361C32.6598 36.8174 32.5459 36.6283 32.3955 36.4688C32.2406 36.3092 32.0537 36.1839 31.835 36.0928C31.6208 35.9971 31.377 35.9492 31.1035 35.9492C30.7708 35.9492 30.4814 35.9971 30.2354 36.0928C29.9938 36.1885 29.7933 36.3229 29.6338 36.4961C29.4697 36.6738 29.3467 36.888 29.2646 37.1387C29.1872 37.3893 29.1484 37.6696 29.1484 37.9795H27.877C27.877 37.5602 27.9499 37.166 28.0957 36.7969C28.2415 36.4232 28.4535 36.0973 28.7314 35.8193C29.0049 35.5413 29.3398 35.3203 29.7363 35.1562C30.1374 34.9922 30.5931 34.9102 31.1035 34.9102C31.5729 34.9102 31.9945 34.9808 32.3682 35.1221C32.7464 35.2588 33.0654 35.4502 33.3252 35.6963C33.585 35.9424 33.7832 36.234 33.9199 36.5713C34.0612 36.9085 34.1318 37.2754 34.1318 37.6719C34.1318 37.9681 34.0817 38.262 33.9814 38.5537C33.8812 38.8408 33.7467 39.1257 33.5781 39.4082C33.4049 39.6908 33.2044 39.971 32.9766 40.249C32.7533 40.5225 32.5163 40.7959 32.2656 41.0693L29.5928 43.9678H34.5898V45Z" fill="black"/>
<path d="M159.962 39.415H160.864C161.183 39.415 161.464 39.3717 161.705 39.2852C161.951 39.1986 162.159 39.0801 162.327 38.9297C162.491 38.7793 162.617 38.5993 162.703 38.3896C162.79 38.18 162.833 37.9499 162.833 37.6992C162.833 37.403 162.794 37.1455 162.717 36.9268C162.639 36.7035 162.525 36.5189 162.375 36.373C162.229 36.2318 162.047 36.127 161.828 36.0586C161.614 35.9857 161.368 35.9492 161.09 35.9492C160.821 35.9492 160.575 35.9902 160.352 36.0723C160.133 36.1497 159.946 36.2637 159.791 36.4141C159.632 36.5645 159.508 36.7445 159.422 36.9541C159.335 37.1637 159.292 37.3984 159.292 37.6582H158.021C158.021 37.2799 158.093 36.9245 158.239 36.5918C158.39 36.2546 158.599 35.9606 158.868 35.71C159.137 35.4639 159.458 35.2702 159.832 35.1289C160.21 34.9831 160.63 34.9102 161.09 34.9102C161.536 34.9102 161.944 34.9717 162.313 35.0947C162.683 35.2132 162.999 35.391 163.264 35.6279C163.528 35.8649 163.733 36.1589 163.879 36.5098C164.025 36.8607 164.098 37.2663 164.098 37.7266C164.098 37.918 164.068 38.1162 164.009 38.3213C163.95 38.5264 163.858 38.7246 163.735 38.916C163.612 39.112 163.453 39.2965 163.257 39.4697C163.065 39.6383 162.835 39.7796 162.566 39.8936C162.89 39.9984 163.159 40.1351 163.373 40.3037C163.592 40.4723 163.767 40.6615 163.899 40.8711C164.027 41.0807 164.116 41.3018 164.166 41.5342C164.221 41.7666 164.248 41.9967 164.248 42.2246C164.248 42.6895 164.168 43.1019 164.009 43.4619C163.849 43.8219 163.628 44.125 163.346 44.3711C163.063 44.6217 162.728 44.8132 162.341 44.9453C161.958 45.0729 161.543 45.1367 161.097 45.1367C160.659 45.1367 160.247 45.0752 159.859 44.9521C159.477 44.8291 159.144 44.6491 158.861 44.4121C158.579 44.1751 158.353 43.8857 158.185 43.5439C158.021 43.2021 157.938 42.8125 157.938 42.375H159.203C159.203 42.6348 159.246 42.8717 159.333 43.0859C159.424 43.3001 159.552 43.4824 159.716 43.6328C159.88 43.7832 160.078 43.8994 160.311 43.9814C160.548 44.0635 160.81 44.1045 161.097 44.1045C161.384 44.1045 161.644 44.068 161.876 43.9951C162.108 43.9176 162.307 43.8014 162.471 43.6465C162.635 43.4915 162.76 43.3001 162.847 43.0723C162.938 42.8398 162.983 42.5664 162.983 42.252C162.983 41.9421 162.931 41.6755 162.826 41.4521C162.726 41.2243 162.585 41.0352 162.402 40.8848C162.215 40.7344 161.99 40.6227 161.726 40.5498C161.466 40.4769 161.179 40.4404 160.864 40.4404H159.962V39.415Z" fill="black"/>
<path d="M293.612 41.6572H295V42.6895H293.612V45H292.348V42.6895H287.809V41.9443L292.266 35.0469H293.612V41.6572ZM289.21 41.6572H292.348V36.7285L292.143 37.1113L289.21 41.6572Z" fill="black"/>
<path d="M418.937 40.0098L419.436 35.0469H424.542V36.2773H420.502L420.222 38.9297C420.418 38.8158 420.652 38.7155 420.926 38.6289C421.199 38.5423 421.516 38.499 421.876 38.499C422.336 38.499 422.749 38.5788 423.113 38.7383C423.478 38.8978 423.788 39.1211 424.043 39.4082C424.298 39.6999 424.494 40.0508 424.631 40.4609C424.768 40.8711 424.836 41.3268 424.836 41.8281C424.836 42.3021 424.772 42.7419 424.645 43.1475C424.517 43.5531 424.326 43.9017 424.07 44.1934C423.811 44.4896 423.485 44.722 423.093 44.8906C422.701 45.0547 422.241 45.1367 421.712 45.1367C421.306 45.1367 420.924 45.0798 420.563 44.9658C420.203 44.8519 419.884 44.681 419.606 44.4531C419.324 44.2253 419.091 43.9382 418.909 43.5918C418.731 43.2454 418.62 42.8421 418.574 42.3818H419.777C419.855 42.9469 420.062 43.3753 420.399 43.667C420.741 43.9587 421.179 44.1045 421.712 44.1045C422.013 44.1045 422.279 44.0521 422.512 43.9473C422.744 43.8379 422.94 43.6829 423.1 43.4824C423.255 43.2865 423.371 43.0495 423.448 42.7715C423.53 42.4935 423.571 42.1836 423.571 41.8418C423.571 41.5319 423.526 41.2425 423.435 40.9736C423.348 40.7048 423.22 40.4701 423.052 40.2695C422.883 40.0736 422.676 39.9186 422.43 39.8047C422.184 39.6908 421.901 39.6338 421.582 39.6338C421.372 39.6338 421.19 39.6497 421.035 39.6816C420.885 39.709 420.748 39.75 420.625 39.8047C420.502 39.8594 420.386 39.9255 420.276 40.0029C420.172 40.0804 420.062 40.1693 419.948 40.2695L418.937 40.0098Z" fill="black"/>
</svg>
